<?xml version="1.0" standalone="no"?>
<!DOCTYPE svg PUBLIC "-//W3C//DTD SVG 20010904//EN"
 "http://www.w3.org/TR/2001/REC-SVG-20010904/DTD/svg10.dtd">
<svg version="1.0" xmlns="http://www.w3.org/2000/svg"
 width="700.000000pt" height="700.000000pt" viewBox="0 0 700.000000 700.000000"
 preserveAspectRatio="xMidYMid meet">
<metadata>
Created by potrace 1.14, written by Peter Selinger 2001-2017
</metadata>
<g transform="translate(0.000000,700.000000) scale(0.100000,-0.100000)"
fill="#000000" stroke="none">
<path d="M3240 6989 c-1192 -90 -2244 -773 -2822 -1831 -134 -247 -265 -593
-328 -873 -179 -793 -83 -1617 274 -2335 179 -360 373 -629 665 -921 402 -401
846 -676 1371 -849 933 -308 1950 -212 2800 262 292 163 525 341 771 587 290
291 484 559 661 913 187 377 299 760 350 1203 7 61 12 220 12 355 0 249 -9
371 -45 585 -99 590 -341 1127 -728 1615 -97 123 -399 425 -521 522 -710 564
-1577 834 -2460 767z m-1444 -1260 c273 -27 480 -120 665 -296 79 -75 250
-286 1968 -2423 321 -399 587 -726 592 -728 5 -2 9 726 9 1727 l0 1731 135 0
135 0 0 -2345 0 -2346 -67 3 -68 3 -540 671 c-297 369 -971 1207 -1497 1862
-527 655 -962 1194 -968 1197 -7 4 -10 -605 -10 -1829 l0 -1836 -135 0 -135 0
0 1898 c0 1144 -4 1936 -10 1996 -38 386 -215 568 -567 584 l-123 5 0 68 0 69
253 0 c140 0 303 -5 363 -11z"/>
</g>
</svg>
